<svg xmlns="http://www.w3.org/2000/svg" xmlns:xlink="http://www.w3.org/1999/xlink" width="704.467" height="212.214" viewBox="0 0 704.467 212.214">
  <defs>
    <linearGradient id="linear-gradient" x1="0.855" y1="0.167" x2="-0.141" y2="1" gradientUnits="objectBoundingBox">
      <stop offset="0" stop-color="#418dd4"/>
      <stop offset="1" stop-color="#00e0b8"/>
    </linearGradient>
  </defs>
  <g id="Group_17328" data-name="Group 17328" transform="translate(-636.459 -346.66)">
    <g id="Path_405" data-name="Path 405" transform="matrix(0.891, -0.454, 0.454, 0.891, 1126.211, 516.465)" fill="none" opacity="0.5">
      <path d="M101.005.278c54.75-1.967,98.3,6.715,97.28,19.392S152.047,44.217,97.3,46.184-1.006,39.469.018,26.792,46.255,2.245,101.005.278Z" stroke="none"/>
      <path d="M 116.3060913085938 0.9999961853027344 C 111.2993545532227 0.9999961853027344 106.163459777832 1.093311309814453 101.0410919189453 1.277339935302734 C 87.6900634765625 1.756969451904297 74.69062042236328 2.827548980712891 62.40390014648438 4.459312438964844 C 50.54685974121094 6.034023284912109 39.85258483886719 8.061786651611328 30.61814880371094 10.48631286621094 C 21.42514038085938 12.89997100830078 14.15762329101562 15.57975959777832 9.0174560546875 18.45125961303711 C 4.00048828125 21.25394248962402 1.23309326171875 24.16612815856934 1.01446533203125 26.87299537658691 C 0.9000396728515625 28.28962707519531 1.486663818359375 29.70673370361328 2.758087158203125 31.08499526977539 C 4.65093994140625 33.13689041137695 7.97796630859375 35.07149505615234 12.64677429199219 36.83502197265625 C 17.31477355957031 38.59825897216797 23.21076965332031 40.1434440612793 30.17100524902344 41.4276008605957 C 44.47651672363281 44.06697082519531 62.39735412597656 45.46207427978516 81.99617004394531 45.46207427978516 C 87.00303649902344 45.46207427978516 92.13898468017578 45.36875915527344 97.2613525390625 45.18473434448242 C 110.6124038696289 44.70510101318359 123.6118240356445 43.634521484375 135.8985290527344 42.00275802612305 C 147.7555847167969 40.42807388305664 158.4498748779297 38.40028381347656 167.684326171875 35.97578430175781 C 176.8773193359375 33.56212615966797 184.1448211669922 30.88233947753906 189.2850036621094 28.01083755493164 C 194.3019561767578 25.20815467834473 197.0693511962891 22.29596900939941 197.2879791259766 19.58910179138184 C 197.4024047851562 18.1724967956543 196.8157806396484 16.75536346435547 195.5443572998047 15.37712669372559 C 193.6515045166016 13.32523345947266 190.3244781494141 11.39062881469727 185.6556396484375 9.6270751953125 C 180.9876403808594 7.863838195800781 175.0916137695312 6.318679809570312 168.13134765625 5.034496307373047 C 153.8258056640625 2.395099639892578 135.9049072265625 0.9999961853027344 116.3060913085938 0.9999961853027344 M 116.3060836791992 7.62939453125e-06 C 163.6448669433594 7.62939453125e-06 199.2112426757812 8.199222564697266 198.2847442626953 19.66960144042969 C 197.2608489990234 32.34623336791992 152.0471954345703 44.21717834472656 97.29724884033203 46.18410110473633 C 92.08758544921875 46.37126541137695 86.97431945800781 46.46207046508789 81.99616241455078 46.46207046508789 C 34.65737915039062 46.46207046508789 -0.9087982177734375 38.26289749145508 0.0177001953125 26.79249572753906 C 1.041610717773438 14.11586380004883 46.25527954101562 2.244918823242188 101.0051956176758 0.2779693603515625 C 106.2148590087891 0.09080886840820312 111.3279266357422 7.62939453125e-06 116.3060836791992 7.62939453125e-06 Z" stroke="none" fill="#5243ab"/>
    </g>
    <g id="Path_490" data-name="Path 490" transform="translate(1145.633 527.222) rotate(-37)" fill="none" opacity="0.3">
      <path d="M86.156.237c46.7-1.678,83.851,5.728,82.978,16.541s-39.44,20.939-86.141,22.616S-.858,33.667.015,22.854,39.455,1.915,86.156.237Z" stroke="none"/>
      <path d="M 99.20736694335938 1.000011444091797 C 94.93817138671875 1.000011444091797 90.55908203125 1.079574584960938 86.19178009033203 1.236465454101562 C 74.80821990966797 1.645442962646484 63.72464752197266 2.5582275390625 53.24890899658203 3.949466705322266 C 43.14108276367188 5.291858673095703 34.02507019042969 7.020336151123047 26.15412902832031 9.086856842041016 C 18.32463073730469 11.14250946044922 12.13710021972656 13.42368316650391 7.763427734375 15.86698722839355 C 3.52886962890625 18.23257446289062 1.194198608398438 20.67633628845215 1.0118408203125 22.93407440185547 C 0.916351318359375 24.11627197265625 1.390274047851562 25.2549877166748 2.460693359375 26.41533660888672 C 4.059600830078125 28.14861869812012 6.878646850585938 29.78605270385742 10.83949279785156 31.28218460083008 C 14.81304931640625 32.78311920166016 19.83375549316406 34.09874725341797 25.76213073730469 35.19253158569336 C 37.95587158203125 37.44229125976562 53.23287200927734 38.63144302368164 69.94154357910156 38.63144302368164 C 74.21073913574219 38.63144302368164 78.58982849121094 38.5518798828125 82.95713043212891 38.39498901367188 C 94.34069061279297 37.98601150512695 105.4242553710938 37.07322692871094 115.8999938964844 35.68198776245117 C 126.0078430175781 34.33959579467773 135.1238403320312 32.61111831665039 142.9947814941406 30.54459762573242 C 150.8242797851562 28.48894500732422 157.0118103027344 26.20777130126953 161.3854827880859 23.76446533203125 C 165.6200408935547 21.39888000488281 167.9546966552734 18.95511817932129 168.1370391845703 16.69738006591797 C 168.2325439453125 15.51518440246582 167.7586059570312 14.37646675109863 166.6882171630859 13.21611785888672 C 165.0893096923828 11.48283576965332 162.270263671875 9.845401763916016 158.3094177246094 8.349269866943359 C 154.3358612060547 6.848335266113281 149.3151550292969 5.532707214355469 143.3867797851562 4.438922882080078 C 131.1930389404297 2.189163208007812 115.9160461425781 1.000011444091797 99.20736694335938 1.000011444091797 M 99.20735931396484 1.9073486328125e-05 C 139.5866088867188 1.9073486328125e-05 169.9240875244141 6.993797302246094 169.1338043212891 16.77787971496582 C 168.2604522705078 27.59083557128906 129.6938934326172 37.71657562255859 82.9930419921875 39.39433670043945 C 78.54927825927734 39.55398178100586 74.18783569335938 39.63143539428711 69.94155120849609 39.63143539428711 C 29.56230163574219 39.63143539428711 -0.775177001953125 32.63765716552734 0.0150909423828125 22.85357475280762 C 0.8884735107421875 12.04061889648438 39.45501708984375 1.914878845214844 86.15586853027344 0.2371177673339844 C 90.59963226318359 0.07747268676757812 94.96107482910156 1.9073486328125e-05 99.20735931396484 1.9073486328125e-05 Z" stroke="none" fill="#5243ab"/>
    </g>
    <path id="Path_404" data-name="Path 404" d="M102.542,81.688h5.584l17.187-55.051,17.1,55.051H148l17.71-61.07H160.82l-15.7,54.876-17.1-54.876h-5.5L105.508,75.493,89.717,20.617H84.831ZM189.7,37.106c-13.348,0-22.6,9.946-22.6,22.771,0,13.174,9.51,22.771,22.945,22.771,8.637,0,15.442-3.926,19.019-9.858l-3.839-2.268c-2.53,4.624-7.939,7.939-15.093,7.939-9.946,0-17.449-6.456-18.5-16.315h39.521c0-.7.087-1.4.087-2.094C211.247,48.1,202.959,37.106,189.7,37.106Zm0,4.188c8.55,0,16.053,5.933,17.012,16.576H171.638C172.511,48.186,179.752,41.294,189.7,41.294Zm31.757,40.394h4.362V18h-4.362Zm37.776.96c8.55,0,15.878-4.362,19.368-11.08l-3.664-2.181a17.426,17.426,0,0,1-15.7,9.073,18.252,18.252,0,0,1-18.5-18.583,18.252,18.252,0,0,1,18.5-18.583c6.979,0,12.912,3.577,15.442,9.073l3.577-2.094c-3.141-6.8-10.469-11.167-19.019-11.167-13.174,0-22.945,9.858-22.945,22.771S246.057,82.647,259.23,82.647Zm48.507,0a22.771,22.771,0,1,0-22.945-22.771A22.586,22.586,0,0,0,307.738,82.647Zm0-4.188a18.584,18.584,0,1,1,18.408-18.583A18.359,18.359,0,0,1,307.738,78.46Zm79.915-41.353a15.9,15.9,0,0,0-14.57,8.9c-2.268-5.758-7.241-8.9-13.61-8.9a15.233,15.233,0,0,0-14.046,8.463v-7.5h-4.362V81.688h4.362V57.347c0-11.167,6.369-16.053,13.523-16.053,6.718,0,11.167,4.449,11.167,12.738V81.688h4.362V57.347c0-11.167,5.758-16.053,13.086-16.053,6.8,0,11.6,4.449,11.6,12.738V81.688h4.362V54.031C403.531,43.126,396.9,37.106,387.653,37.106Zm47.809,0c-13.348,0-22.6,9.946-22.6,22.771,0,13.174,9.51,22.771,22.945,22.771,8.637,0,15.442-3.926,19.019-9.858l-3.839-2.268c-2.53,4.624-7.939,7.939-15.093,7.939-9.946,0-17.449-6.456-18.5-16.315h39.521c0-.7.087-1.4.087-2.094C457.011,48.1,448.723,37.106,435.462,37.106Zm0,4.188c8.55,0,16.053,5.933,17.012,16.576H417.4C418.275,48.186,425.516,41.294,435.462,41.294ZM528.9,20.617H485.8v4.362h19.194V81.688h4.711V24.979H528.9Zm20.851,62.03a22.771,22.771,0,1,0-22.945-22.771A22.586,22.586,0,0,0,549.751,82.647Zm0-4.188a18.584,18.584,0,1,1,18.408-18.583A18.359,18.359,0,0,1,549.751,78.46ZM47.317,120.947H1.95v13.435h15.7v47.635H31.613V134.383h15.7Zm39.259,0v23.381H67.382V120.947H53.424v61.07H67.382V157.764H86.576v24.254h13.959v-61.07Zm38.387,47.635V157.764h21.811V144.5H124.963v-10.12h23.992V120.947H111v61.07h38.387V168.582Zm239.308,13.435H380.15l9.946-36.031,9.946,36.031h15.878l16.838-61.07H418.1L407.544,163.7l-11.778-42.749H384.425L372.647,163.7,362.09,120.947H347.433Zm101.115,1.221a31.757,31.757,0,1,0-31.757-31.757A31.484,31.484,0,0,0,465.386,183.239Zm0-13.61c-9.946,0-17.8-7.241-17.8-18.147s7.852-18.147,17.8-18.147,17.8,7.241,17.8,18.147S475.332,169.629,465.386,169.629ZM537.1,182.017h15.006l-13-22.422a20.127,20.127,0,0,0,11.254-17.71,20.888,20.888,0,0,0-20.938-20.938H504.995v61.07h13.959V161.951h6.63Zm-18.147-47.984h10.469c3.839,0,6.979,3.4,6.979,7.852s-3.141,7.852-6.979,7.852H518.954Zm53.655,34.548V120.947H558.65v61.07h35.77V168.582Zm52.346-47.635H600.526v61.07h24.428c16.838,0,29.663-13.261,29.663-30.535S641.792,120.947,624.954,120.947Zm0,47.635H614.485v-34.2h10.469c9.6,0,16.227,6.63,16.227,17.1S634.551,168.582,624.954,168.582Z" transform="translate(634.509 328.66)" fill="#fff"/>
    <path id="Path_483" data-name="Path 483" d="M213.12,120.947v33.114l-23.584-33.114H179.054v61H193.03V148.833l23.584,33.114H227.1v-61Zm61.581,13.42v-13.42H237.578v61h13.976v-22.4h22.711v-13.42H251.554V134.367Zm49.352-13.42H278.632v13.42h15.723v47.58h13.976v-47.58h15.723Z" transform="translate(633.946 329.053)" fill="url(#linear-gradient)"/>
    <g id="Path_485" data-name="Path 485" transform="translate(1123.016 501.286) rotate(-19)" fill="none">
      <path d="M108.625.3C167.5-1.816,214.344,7.521,213.243,21.153s-49.726,26.4-108.606,28.515S-1.082,42.447.019,28.814,49.745,2.414,108.625.3Z" stroke="none"/>
      <path d="M 125.0798873901367 2.000003814697266 C 119.7067718505859 2.000003814697266 114.1946258544922 2.100151062011719 108.6965408325195 2.297653198242188 C 94.36782836914062 2.812416076660156 80.41754150390625 3.961269378662109 67.23321533203125 5.712238311767578 C 54.5196533203125 7.400680541992188 43.05668640136719 9.573944091796875 33.16265869140625 12.17162322998047 C 23.3515625 14.74756240844727 15.60850524902344 17.60021209716797 10.14859008789062 20.65029907226562 C 7.487716674804688 22.13679885864258 5.43511962890625 23.64291572570801 4.047836303710938 25.12685775756836 C 2.795333862304688 26.46659278869629 2.110565185546875 27.76118087768555 2.012542724609375 28.97465133666992 C 1.909683227539062 30.24794578552246 2.443923950195312 31.50024032592773 3.645736694335938 32.80303192138672 C 7.585540771484375 37.07388687133789 17.8736572265625 40.92379760742188 32.61488342285156 43.64356231689453 C 47.9451904296875 46.4720344543457 67.15994262695312 47.96706390380859 88.18192291259766 47.96706390380859 C 93.55503845214844 47.96706390380859 99.06718444824219 47.86691665649414 104.5652770996094 47.66941452026367 C 118.8939819335938 47.1546516418457 132.8442687988281 46.00582885742188 146.0286254882812 44.25485610961914 C 158.7421875 42.5664176940918 170.2051544189453 40.39315032958984 180.0991516113281 37.79544448852539 C 189.9102783203125 35.21950531005859 197.6533355712891 32.36685943603516 203.1132202148438 29.31674003601074 C 205.7740936279297 27.83026885986328 207.8267211914062 26.32415199279785 209.2140045166016 24.8402099609375 C 210.4664764404297 23.50044631958008 211.1512451171875 22.20585823059082 211.249267578125 20.99238586425781 C 211.3521270751953 19.71909332275391 210.8178863525391 18.46682739257812 209.6160736083984 17.16400527954102 C 205.67626953125 12.89318084716797 195.38818359375 9.043270111083984 180.6469421386719 6.323505401611328 C 165.3166198730469 3.495033264160156 146.1018676757812 2.000003814697266 125.0798873901367 2.000003814697266 M 125.0798950195312 1.9073486328125e-05 C 175.9897766113281 1.9073486328125e-05 214.2391662597656 8.817726135253906 213.2427673339844 21.15341567993164 C 212.1416625976562 34.78635787963867 163.5172119140625 47.55282974243164 104.6370697021484 49.66812133789062 C 99.03440093994141 49.86940002441406 93.53562164306641 49.96704864501953 88.18193054199219 49.96704864501953 C 37.27206420898438 49.96704864501953 -0.97735595703125 41.14933776855469 0.01904296875 28.81362152099609 C 1.12017822265625 15.18070983886719 49.74462890625 2.414268493652344 108.6247406005859 0.2989463806152344 C 114.227409362793 0.09766769409179688 119.7261962890625 1.9073486328125e-05 125.0798950195312 1.9073486328125e-05 Z" stroke="none" fill="#5243ab"/>
    </g>
    <path id="Path_486" data-name="Path 486" d="M7821.555,495.9l2.894,3.712,10.129-8.02-2.321-2.907Z" transform="translate(-6513.997 -1084.952) rotate(8)" fill="#fff"/>
    <path id="Path_487" data-name="Path 487" d="M7821.225,494.859v5.007l13.9-6.232v-5.239Z" transform="translate(-6628.011 -15.247)" fill="#fff"/>
    <path id="Path_488" data-name="Path 488" d="M7820.915,495.188v4.4l19.059-10.972h-4.837Z" transform="translate(-6436.541 -1121.77) rotate(8)" fill="#fff"/>
    <ellipse id="Ellipse_36" data-name="Ellipse 36" cx="6.041" cy="6.041" rx="6.041" ry="6.041" transform="translate(1179.39 523.935) rotate(-9)" fill="#00e0b8"/>
    <ellipse id="Ellipse_37" data-name="Ellipse 37" cx="4.041" cy="4.041" rx="4.041" ry="4.041" transform="translate(1128.171 522.572) rotate(-9)" fill="#00e0b8"/>
    <ellipse id="Ellipse_33" data-name="Ellipse 33" cx="3.511" cy="3.511" rx="3.511" ry="3.511" transform="translate(1324.966 446.324) rotate(-9)" fill="#00e0b8"/>
    <path id="Path_489" data-name="Path 489" d="M7891.02,456.8v6.772l39.368-14.028s-1.37-.793-2.423-1.3a19.392,19.392,0,0,0-2.5-.934Z" transform="translate(-6656 4)" fill="#fff"/>
  </g>
</svg>
