<?xml version="1.0" encoding="utf-8"?>
<!-- Generator: Adobe Illustrator 26.0.1, SVG Export Plug-In . SVG Version: 6.00 Build 0)  -->
<svg version="1.1" id="Layer_1" xmlns="http://www.w3.org/2000/svg" xmlns:xlink="http://www.w3.org/1999/xlink" x="0px" y="0px"
	 viewBox="0 0 46.2 56.7" style="enable-background:new 0 0 46.2 56.7;" xml:space="preserve">
<style type="text/css">
	.st0{fill:#FFFFFF;}
</style>
<g>
	<path class="st0" d="M38.6,30.1c-0.1-7.1,5.9-10.7,6.1-10.8c-3.3-4.9-8.5-5.5-10.3-5.7c-4.4-0.4-8.6,2.6-10.9,2.6s-5.7-2.6-9.4-2.5
		c-4.8,0.1-9.3,2.8-11.7,7.1c-5,8.6-1.3,21.5,3.6,28.6c2.3,3.4,5.2,7.4,9,7.1c3.6-0.1,4.9-2.3,9.3-2.3s5.5,2.3,9.4,2.2
		s6.3-3.5,8.6-6.9c2.8-4.1,3.8-7.9,3.9-8.1C46.1,41.6,38.6,38.7,38.6,30.1z"/>
	<path class="st0" d="M31.4,9.1c2-2.5,3.3-5.8,3-9.1c-2.9,0.1-6.3,1.9-8.3,4.3c-1.8,2.1-3.4,5.5-3,8.7C26.2,13.4,29.4,11.4,31.4,9.1
		z"/>
</g>
</svg>
