<svg xmlns="http://www.w3.org/2000/svg" width="41" height="41.012" viewBox="0 0 41 41.012">
  <g id="_1976055_edit_edit_document_edit_file_edited_editing_icon" data-name="1976055_edit_edit document_edit file_edited_editing_icon" transform="translate(-2.569 -2.566)">
    <path id="Path_503" data-name="Path 503" d="M39.6,36.837a3.525,3.525,0,0,1-3.471,3.53H8.355a3.525,3.525,0,0,1-3.471-3.53V9.06A3.426,3.426,0,0,1,8.355,5.645h16.2V3.332H8.355a5.744,5.744,0,0,0-5.786,5.73V36.837A5.841,5.841,0,0,0,8.355,42.68H36.131a5.842,5.842,0,0,0,5.786-5.843V20.691H39.6V36.837Z" transform="translate(0 0.899)" fill="#00e0b8"/>
    <path id="Path_504" data-name="Path 504" d="M33.791,3.879a4.739,4.739,0,0,0-6.547,0L11.717,19.405a1.156,1.156,0,0,0-.3.537L9.778,26.487A1.158,1.158,0,0,0,10.9,27.926a1.126,1.126,0,0,0,.28-.035l6.547-1.637a1.145,1.145,0,0,0,.537-.3L33.791,10.424a4.626,4.626,0,0,0,0-6.545ZM16.856,24.087l-4.365,1.091,1.091-4.365L26.427,7.969,29.7,11.243Zm15.3-15.3-.817.817L28.063,6.331l.817-.817a2.372,2.372,0,0,1,3.274,0,2.314,2.314,0,0,1,0,3.274Z" transform="translate(8.421 0)" fill="#00e0b8"/>
  </g>
</svg>
