<svg xmlns="http://www.w3.org/2000/svg" width="41" height="41" viewBox="0 0 41 41">
  <g id="Group_10929" data-name="Group 10929" transform="translate(-1452.415 -1343.947)">
    <path id="Rectangle_64" data-name="Rectangle 64" d="M2,2V21H16V2H2M2,0H16a2,2,0,0,1,2,2V21a2,2,0,0,1-2,2H2a2,2,0,0,1-2-2V2A2,2,0,0,1,2,0Z" transform="translate(1452.415 1343.947)" fill="#00e0b8"/>
    <path id="Rectangle_67" data-name="Rectangle 67" d="M2,2V21H16V2H2M2,0H16a2,2,0,0,1,2,2V21a2,2,0,0,1-2,2H2a2,2,0,0,1-2-2V2A2,2,0,0,1,2,0Z" transform="translate(1475.415 1361.947)" fill="#00e0b8"/>
    <path id="Rectangle_65" data-name="Rectangle 65" d="M2,2v9H16V2H2M2,0H16a2,2,0,0,1,2,2v9a2,2,0,0,1-2,2H2a2,2,0,0,1-2-2V2A2,2,0,0,1,2,0Z" transform="translate(1452.415 1371.947)" fill="#00e0b8"/>
    <path id="Rectangle_66" data-name="Rectangle 66" d="M2,2v9H16V2H2M2,0H16a2,2,0,0,1,2,2v9a2,2,0,0,1-2,2H2a2,2,0,0,1-2-2V2A2,2,0,0,1,2,0Z" transform="translate(1475.415 1343.947)" fill="#00e0b8"/>
  </g>
</svg>
