<svg xmlns="http://www.w3.org/2000/svg" width="41" height="41" viewBox="0 0 41 41">
  <g id="Group_17327" data-name="Group 17327" transform="translate(-810.042 -1306)">
    <path id="Rectangle_715" data-name="Rectangle 715" d="M2,2V39H39V2H2M2,0H39a2,2,0,0,1,2,2V39a2,2,0,0,1-2,2H2a2,2,0,0,1-2-2V2A2,2,0,0,1,2,0Z" transform="translate(810.042 1306)" fill="#418dd4"/>
    <path id="Line_13" data-name="Line 13" d="M0,13.854A1.25,1.25,0,0,1-1.25,12.6V0A1.25,1.25,0,0,1,0-1.25,1.25,1.25,0,0,1,1.25,0V12.6A1.25,1.25,0,0,1,0,13.854Z" transform="translate(830.454 1320.11)" fill="#418dd4"/>
    <path id="Line_14" data-name="Line 14" d="M12.6,1.25H0A1.25,1.25,0,0,1-1.25,0,1.25,1.25,0,0,1,0-1.25H12.6A1.25,1.25,0,0,1,13.854,0,1.25,1.25,0,0,1,12.6,1.25Z" transform="translate(824.152 1325.927)" fill="#418dd4"/>
  </g>
</svg>
