<svg xmlns="http://www.w3.org/2000/svg" width="40.834" height="40.912" viewBox="0 0 40.834 40.912">
  <g id="Group_17328" data-name="Group 17328" transform="translate(-809.042 -1794.183)">
    <g id="_5402386_save_arrow_file_media_import_icon" data-name="5402386_save_arrow_file_media_import_icon" transform="translate(812.274 1791.083)">
      <path id="Path_509" data-name="Path 509" d="M28.141,3.548a1.7,1.7,0,0,0-2.417,0L12.91,16.074V12.057A1.712,1.712,0,0,0,10,13.265v6.807a1.728,1.728,0,0,0,1.7,1.7h6.807a1.712,1.712,0,0,0,1.208-2.91h-4.7l13.214-12.9a1.7,1.7,0,0,0-.085-2.417Z" transform="translate(8.912 0.056)" fill="#418dd4"/>
    </g>
    <g id="_1976055_edit_edit_document_edit_file_edited_editing_icon" data-name="1976055_edit_edit document_edit file_edited_editing_icon" transform="translate(806.473 1791.516)">
      <path id="Path_503" data-name="Path 503" d="M39.6,36.837a3.525,3.525,0,0,1-3.471,3.53H8.355a3.525,3.525,0,0,1-3.471-3.53V9.06A3.426,3.426,0,0,1,8.355,5.645h16.2V3.332H8.355a5.744,5.744,0,0,0-5.786,5.73V36.837A5.841,5.841,0,0,0,8.355,42.68H36.131a5.842,5.842,0,0,0,5.786-5.843V20.691H39.6V36.837Z" transform="translate(0 0.899)" fill="#418dd4"/>
    </g>
  </g>
</svg>
