<svg xmlns="http://www.w3.org/2000/svg" width="41" height="41" viewBox="0 0 41 41">
  <path id="_9040573_save_icon" data-name="9040573_save_icon" d="M5.125,2.562A2.562,2.562,0,0,0,2.562,5.125v30.75a2.562,2.562,0,0,0,2.562,2.562h30.75a2.562,2.562,0,0,0,2.562-2.562V5.125a2.562,2.562,0,0,0-2.562-2.562H24.344a2.562,2.562,0,0,0-2.562,2.562V23.813l6.78-6.783a1.283,1.283,0,0,1,1.814,1.814l-8.969,8.969a1.281,1.281,0,0,1-1.814,0l-8.969-8.969a1.283,1.283,0,0,1,1.814-1.814l6.78,6.783V5.125A5.125,5.125,0,0,1,24.344,0H35.875A5.125,5.125,0,0,1,41,5.125v30.75A5.125,5.125,0,0,1,35.875,41H5.125A5.125,5.125,0,0,1,0,35.875V5.125A5.125,5.125,0,0,1,5.125,0h6.406a1.281,1.281,0,1,1,0,2.562Z" fill="#00e0b8"/>
</svg>
