<svg xmlns="http://www.w3.org/2000/svg" width="41" height="41" viewBox="0 0 41 41">
  <path id="_2738308_compare_compare_price_match_icon" data-name="2738308_compare_compare price_match_icon" d="M40.719,1H19.792A1.282,1.282,0,0,0,18.51,2.281v6.94H2.281A1.282,1.282,0,0,0,1,10.5V40.719A1.282,1.282,0,0,0,2.281,42H23.2a1.282,1.282,0,0,0,1.281-1.281V33.79H40.719A1.282,1.282,0,0,0,42,32.509V2.281A1.282,1.282,0,0,0,40.719,1Zm-18.8,38.438H3.563V26.465h9.9L9.351,30.579a.854.854,0,1,0,1.208,1.208l5.569-5.571a.857.857,0,0,0,0-1.21l-5.569-5.571a.854.854,0,1,0-1.208,1.208l4.113,4.114h-9.9V11.784H19.783l.008,0,.008,0h2.119Zm2.563-8.21V10.5A1.282,1.282,0,0,0,23.2,9.221H21.073V3.563H39.438V16.542H29.531l4.114-4.116a.854.854,0,0,0-1.208-1.208l-5.571,5.573a.857.857,0,0,0,0,1.21l5.571,5.573a.854.854,0,0,0,1.208-1.208L29.531,18.25h9.907V31.228H24.481Z" transform="translate(-1 -1)" fill="#00e0b8"/>
</svg>
