<svg xmlns="http://www.w3.org/2000/svg" width="94" height="112" viewBox="0 0 94 112">
  <g id="Group_318" data-name="Group 318" transform="translate(-184 -96)">
    <g id="Polygon_4" data-name="Polygon 4" transform="translate(184 208) rotate(-90)" fill="none" stroke-linecap="round">
      <path d="M83.432,0a1,1,0,0,1,.859.488l27.4,46a1,1,0,0,1,0,1.024l-27.4,46a1,1,0,0,1-.859.488H28.568a1,1,0,0,1-.859-.488l-27.4-46a1,1,0,0,1,0-1.024l27.4-46A1,1,0,0,1,28.568,0Z" stroke="none"/>
      <path d="M 29.42066192626953 2.5 L 2.910003662109375 46.99998474121094 L 29.42063903808594 91.5 L 82.57933807373047 91.5 L 109.0899810791016 46.99999618530273 L 82.57933044433594 2.5 L 29.42066192626953 2.5 M 28.56826782226562 0 L 83.43173217773438 0 C 83.78411865234375 0 84.11048126220703 0.1854629516601562 84.29083251953125 0.4881973266601562 L 111.6950988769531 46.48820114135742 C 111.8829498291016 46.80353164672852 111.8829498291016 47.19646835327148 111.6950988769531 47.51179885864258 L 84.29083251953125 93.51180267333984 C 84.11048126220703 93.81453704833984 83.78411865234375 94 83.43173217773438 94 L 28.56826782226562 94 C 28.21588134765625 94 27.88951873779297 93.81453704833984 27.70915222167969 93.51180267333984 L 0.304901123046875 47.51179885864258 C 0.117034912109375 47.19644927978516 0.117034912109375 46.80353164672852 0.304901123046875 46.48818206787109 L 27.70916748046875 0.4881973266601562 C 27.88951873779297 0.1854629516601562 28.21588134765625 0 28.56826782226562 0 Z" stroke="none" fill="#fff"/>
    </g>
    <path id="Path_398" data-name="Path 398" d="M-13.6-20.3V-9.28l-7.83-11.02h-3.48V0h4.64V-11.02L-12.441,0h3.48V-20.3ZM8.41-15.834V-20.3H-3.915V0H.725V-7.453h7.54v-4.466H.725v-3.915ZM26.361-20.3H11.281v4.466H16.5V0h4.64V-15.834h5.22Z" transform="translate(231 162)" fill="#fff"/>
    <g id="Group_319" data-name="Group 319" transform="translate(0 0.206)">
      <path id="Path_395" data-name="Path 395" d="M128.521,120.526,160.3,102.066l31.261,18.459" transform="translate(70.979 13.728)" fill="none" stroke="#fff" stroke-linecap="round" stroke-linejoin="round" stroke-width="2.5"/>
      <path id="Path_397" data-name="Path 397" d="M128.521,102.066,160.3,120.526l31.261-18.459" transform="translate(70.979 67.031)" fill="none" stroke="#fff" stroke-linecap="round" stroke-linejoin="round" stroke-width="2.5"/>
    </g>
  </g>
</svg>
